<?xml version="1.0" encoding="UTF-8" standalone="no"?>
<svg
   xmlns:dc="http://purl.org/dc/elements/1.1/"
   xmlns:cc="http://creativecommons.org/ns#"
   xmlns:rdf="http://www.w3.org/1999/02/22-rdf-syntax-ns#"
   xmlns:svg="http://www.w3.org/2000/svg"
   xmlns="http://www.w3.org/2000/svg"
   xmlns:sodipodi="http://sodipodi.sourceforge.net/DTD/sodipodi-0.dtd"
   xmlns:inkscape="http://www.inkscape.org/namespaces/inkscape"
   version="1.1"
   width="500"
   height="238"
   id="svg3774"
   viewBox="0 0 500 238"
   sodipodi:docname="LogoMarca-original.svg"
   inkscape:version="0.92.2 (5c3e80d, 2017-08-06)">
  <metadata
     id="metadata3780">
    <rdf:RDF>
      <cc:Work
         rdf:about="">
        <dc:format>image/svg+xml</dc:format>
        <dc:type
           rdf:resource="http://purl.org/dc/dcmitype/StillImage" />
        <dc:title></dc:title>
      </cc:Work>
    </rdf:RDF>
  </metadata>
  <defs
     id="defs3778" />
  <sodipodi:namedview
     pagecolor="#ffffff"
     bordercolor="#666666"
     borderopacity="1"
     objecttolerance="10"
     gridtolerance="10"
     guidetolerance="10"
     inkscape:pageopacity="0"
     inkscape:pageshadow="2"
     inkscape:window-width="1920"
     inkscape:window-height="1027"
     id="namedview3776"
     showgrid="false"
     inkscape:zoom="1"
     inkscape:cx="150.06919"
     inkscape:cy="408.65701"
     inkscape:window-x="-8"
     inkscape:window-y="-8"
     inkscape:window-maximized="1"
     inkscape:current-layer="svg3774" />
  <text
     style="font-variant:normal;font-weight:normal;font-size:126.15332794px;font-family:Rockwell;-inkscape-font-specification:Rockwell;writing-mode:lr-tb;fill:#ffffff;fill-opacity:1;fill-rule:nonzero;stroke:#ffffff;stroke-width:0.28799999;stroke-linecap:butt;stroke-linejoin:miter;stroke-miterlimit:22.92558479;stroke-dasharray:none;stroke-opacity:1"
     id="text3808-7"
     x="386.12115"
     y="601.15027">
    <tspan
       x="386.12115 476.84607 564.90112"
       y="601.15027"
       sodipodi:role="line"
       id="tspan3804-9"
       style="stroke-width:0.28799999">DAR</tspan>
    <tspan
       x="641.11798 706.84381 785.68964"
       y="601.15027"
       sodipodi:role="line"
       id="tspan3806-5"
       style="stroke-width:0.28799999">LEY</tspan>
  </text>
  <path
     d="M 31.147309,-377.89317 H 561.50956 V -79.564311 H 31.147309 Z"
     style="fill:#ffffff;fill-opacity:1;fill-rule:evenodd;stroke:none;stroke-width:1.00111473"
     id="path3792"
     inkscape:connector-curvature="0" />
  <g
     id="g845"
     transform="matrix(1.00126,0,0,1.001017,-46.701934,-239.68019)">
    <path
       d="m 296.30165,257.56602 v 201.40029 c -0.0346,0 -0.0696,0 -0.10412,0 -116.86573,0 -211.604719,-45.08515 -211.604719,-100.69988 0,-55.61533 94.738989,-100.70041 211.604719,-100.70041 0.0345,0 0.0695,0 0.10412,0 z"
       style="fill:#ffffff;fill-opacity:1;fill-rule:evenodd;stroke:#1d994b;stroke-width:0.21624078;stroke-linecap:butt;stroke-linejoin:miter;stroke-miterlimit:22.92558479;stroke-dasharray:none;stroke-opacity:1"
       id="path3800-4"
       inkscape:connector-curvature="0" />
    <path
       d="m 84.828382,358.26643 c 0,-55.59888 94.682528,-100.67368 211.500198,-100.70041 v -18.02119 c -137.83788,0 -249.577296,53.17564 -249.577296,118.77101 0,65.59529 111.739416,118.77092 249.577296,118.77092 V 458.96631 C 179.51091,458.93958 84.828382,413.86479 84.828382,358.26643 Z"
       style="fill:#1d9943;fill-opacity:1;fill-rule:evenodd;stroke:#1d994b;stroke-width:0.21624078;stroke-linecap:butt;stroke-linejoin:miter;stroke-miterlimit:22.92558479;stroke-dasharray:none;stroke-opacity:1"
       id="path3796"
       inkscape:connector-curvature="0" />
    <path
       id="path3798"
       d="m 108.74824,321.68232 v 68.86721 h 17.38948 c 6.32086,0 11.4089,-0.43151 15.26308,-1.29489 3.88503,-0.86332 7.40043,-2.26625 10.54544,-4.20874 4.53252,-2.80588 8.15472,-6.75279 10.86806,-11.84039 2.74418,-5.08751 4.1164,-10.76068 4.1164,-17.01987 0,-6.69085 -1.31078,-12.47236 -3.93162,-17.34401 -2.62085,-4.87173 -6.27376,-8.77187 -10.96045,-11.70103 -2.74418,-1.69584 -6.10597,-3.02129 -10.0835,-3.97711 -3.94668,-0.98667 -9.28049,-1.48117 -16.00219,-1.48117 z m 90.09446,0 -25.06649,68.86721 h 9.296 l 6.75166,-19.19317 h 29.7856 l 6.75313,19.19317 h 9.75793 l -25.06648,-68.86721 z m 47.73088,0 v 68.86721 h 9.15815 v -27.38052 h 12.90352 l 23.03249,27.38052 h 4.66046 v -8.39991 L 277.65409,360.4413 c 4.37835,-1.69584 7.81621,-4.20911 10.31373,-7.53914 2.49751,-3.36082 3.74538,-7.52428 3.74538,-12.48851 0,-3.66918 -0.70805,-6.6901 -2.12639,-9.06432 -1.38751,-2.405 -3.33027,-4.39457 -5.82778,-5.96704 -2.22001,-1.38755 -4.71722,-2.34284 -7.49223,-2.86699 -2.77501,-0.55502 -6.24507,-0.83298 -10.40758,-0.83298 z m -128.66867,7.86328 h 8.60236 c 4.25502,0 7.9094,0.30867 10.96191,0.92533 3.05252,0.58588 5.93594,1.64936 8.64928,3.19105 3.73085,2.1275 6.53673,5.04164 8.41758,8.74169 1.88084,3.70004 2.8215,8.2468 2.8215,13.64261 0,5.36503 -0.86459,9.83723 -2.59127,13.41391 -1.69584,3.57669 -4.25448,6.45862 -7.677,8.64776 -2.74418,1.75756 -5.76511,2.96002 -9.06429,3.60754 -3.26835,0.64752 -7.10852,0.97083 -11.51771,0.97083 h -8.60236 z m 137.82682,0 h 10.77567 c 2.46668,0 4.60985,0.18433 6.42903,0.55434 1.81917,0.33915 3.39181,0.95649 4.71766,1.85066 1.60334,1.04839 2.74441,2.34306 3.42275,3.88475 0.70917,1.51084 1.0632,3.25315 1.0632,5.2265 0,2.59001 -0.3394,4.73319 -1.01774,6.42903 -0.6475,1.66498 -1.66423,3.14405 -3.05173,4.43902 -1.51084,1.38754 -3.34535,2.34426 -5.50369,2.86842 -2.15835,0.49337 -4.68773,0.73912 -7.58609,0.73912 h -9.24906 z m -51.01432,0.13935 12.07056,33.80813 H 192.5999 Z"
       style="fill:#1d9943;fill-opacity:1;fill-rule:evenodd;stroke:#1d994b;stroke-width:0.21624078;stroke-linecap:butt;stroke-linejoin:miter;stroke-miterlimit:22.92558479;stroke-dasharray:none;stroke-opacity:1"
       inkscape:connector-curvature="0" />
    <path
       d="m 296.32858,257.56602 v 201.40029 c 0.0346,0 0.0696,0 0.10412,0 116.86572,0 211.60472,-45.08515 211.60472,-100.69988 0,-55.61533 -94.739,-100.70041 -211.60472,-100.70041 -0.0345,0 -0.0695,0 -0.10412,0 z"
       style="fill:#1d9943;fill-opacity:1;fill-rule:evenodd;stroke:#1d994b;stroke-width:0.21624078;stroke-linecap:butt;stroke-linejoin:miter;stroke-miterlimit:22.92558479;stroke-dasharray:none;stroke-opacity:1"
       id="path3800"
       inkscape:connector-curvature="0" />
    <path
       d="m 296.4327,257.56602 c 116.86572,0 211.60472,45.08508 211.60472,100.70041 0,55.61473 -94.739,100.69988 -211.60472,100.69988 -0.0345,0 -0.0695,0 -0.10412,0 v 18.12045 c 137.83788,0 249.57731,-53.17563 249.57731,-118.77092 0,-65.59537 -111.73943,-118.77101 -249.57731,-118.77101 v 18.02119 z"
       style="fill:#ffffff;fill-opacity:1;fill-rule:evenodd;stroke:#1d994b;stroke-width:0.21624078;stroke-linecap:butt;stroke-linejoin:miter;stroke-miterlimit:22.92558479;stroke-dasharray:none;stroke-opacity:1"
       id="path3802"
       inkscape:connector-curvature="0" />
    <text
       y="390.54956"
       x="104.00284"
       id="text3808-0"
       style="font-variant:normal;font-weight:normal;font-size:94.72046661px;font-family:Rockwell;-inkscape-font-specification:Rockwell;writing-mode:lr-tb;fill:#ffffff;fill-opacity:1;fill-rule:nonzero;stroke:#ffffff;stroke-width:0.21624078;stroke-linecap:butt;stroke-linejoin:miter;stroke-miterlimit:22.92558479;stroke-dasharray:none;stroke-opacity:1">
      <tspan
         style="fill:#ffffff;fill-opacity:1;stroke-width:0.21624078"
         id="tspan3806-4"
         sodipodi:role="line"
         y="390.54956"
         x="295.46365 344.81299 404.01328">LEY</tspan>
    </text>
  </g>
</svg>
